<?xml version="1.0" encoding="utf-8"?>
<!-- Generator: Adobe Illustrator 21.0.0, SVG Export Plug-In . SVG Version: 6.00 Build 0)  -->
<svg version="1.1" id="Layer_1" xmlns="http://www.w3.org/2000/svg" xmlns:xlink="http://www.w3.org/1999/xlink" x="0px" y="0px"
	 viewBox="0 0 175 236.6" style="enable-background:new 0 0 175 236.6;" xml:space="preserve">
<style type="text/css">
	.st0{fill:#FFFFFF;}
</style>
<path class="st0" d="M85.3,236.1C85.3,236.1,85.4,236.1,85.3,236.1c0.7,0.3,1.4,0.4,2.1,0.4s1.4-0.1,2-0.4h0.1
	c0.7-0.3,1.3-0.7,1.8-1.2l0,0l82.2-82.2c2.2-2.2,2.2-5.7,0-7.8c-2.2-2.2-5.7-2.2-7.8,0l-72.8,72.7V5.5c0-3.1-2.5-5.5-5.5-5.5
	c-3.1,0-5.5,2.5-5.5,5.5v212.1L9.2,144.9c-2.2-2.2-5.7-2.2-7.8,0c-1.1,1.1-1.6,2.5-1.6,3.9s0.5,2.8,1.6,3.9l82.2,82.2l0,0
	C84,235.4,84.6,235.9,85.3,236.1z"/>
</svg>
